
<svg id="Layer_1" data-name="Layer 1" xmlns="http://www.w3.org/2000/svg" viewBox="0 0 60 60"><defs><style>.cls-1{fill:#ffe178;}.cls-2{fill:#35bfbf;}</style></defs><path d="M18.91,13.79H14.36a.74.74,0,0,1-.68-.46.73.73,0,0,1,.17-.79l4.56-4.4A.74.74,0,0,1,19.2,8a.73.73,0,0,1,.44.67v4.4A.73.73,0,0,1,18.91,13.79Zm-2.75-1.46h2V10.38Z"/><path class="cls-1" d="M45.64,52.06h-29a.73.73,0,0,1-.73-.72V49.15a.73.73,0,0,1,.73-.73H42.59V10.85a.73.73,0,0,1,.73-.73h2.32a.73.73,0,0,1,.73.73V51.34A.73.73,0,0,1,45.64,52.06ZM17.41,50.61h27.5v-39h-.86V49.15a.73.73,0,0,1-.73.73H17.41Z"/><path d="M33.92,35.83H24a.73.73,0,1,1,0-1.46h9.91a.73.73,0,1,1,0,1.46Z"/><path d="M39,39.31H18.91a.73.73,0,0,1,0-1.46H39a.73.73,0,0,1,0,1.46Z"/><path d="M39,42.79H18.91a.73.73,0,0,1,0-1.46H39a.73.73,0,1,1,0,1.46Z"/><path class="cls-2" d="M26.25,17.69a.58.58,0,0,1-.19,0,4.93,4.93,0,0,1-2-1.06.73.73,0,1,1,1-1.06,3.77,3.77,0,0,0,1.41.72.72.72,0,0,1,.51.89A.74.74,0,0,1,26.25,17.69Z"/><path class="cls-2" d="M27.23,30.09a1.52,1.52,0,0,1-.42-.06,1.69,1.69,0,0,1-1.2-1.66V26.76a1.22,1.22,0,0,0-1.08-1.32,1.22,1.22,0,0,0-1.08,1.32v1.61A1.69,1.69,0,0,1,22.26,30a1.53,1.53,0,0,1-1.75-.72c-2.39-3.86-2.41-9.74-2.41-10a4.57,4.57,0,0,1,4.31-4.77,4,4,0,0,1,2.12.62,4,4,0,0,1,2.12-.62A4.56,4.56,0,0,1,31,19.33c0,.24,0,6.12-2.4,10A1.56,1.56,0,0,1,27.23,30.09ZM24.53,24a2.66,2.66,0,0,1,2.54,2.77v1.61c0,.16.07.24.13.25s.06,0,.12-.07c2.17-3.52,2.18-9.17,2.18-9.22A3.12,3.12,0,0,0,26.65,16a2.6,2.6,0,0,0-1.65.62.71.71,0,0,1-.93,0A2.61,2.61,0,0,0,22.41,16a3.12,3.12,0,0,0-2.85,3.32c0,.05,0,5.71,2.19,9.22.05.09.09.08.11.07s.13-.09.13-.25V26.76A2.66,2.66,0,0,1,24.53,24Z"/><path d="M33.92,22.09H27.21a.73.73,0,1,1,0-1.45h6.38l2.74-3.09a.72.72,0,0,1,1-.06.73.73,0,0,1,.07,1l-3,3.33A.76.76,0,0,1,33.92,22.09Z"/><path d="M39.62,16h-5.7a.73.73,0,0,1,0-1.46h5.7a.73.73,0,0,1,0,1.46Z"/><path d="M43.32,49.88h-29a.73.73,0,0,1-.73-.73V13.06a.71.71,0,0,1,.22-.52l4.56-4.4a.72.72,0,0,1,.5-.2H43.32a.73.73,0,0,1,.73.72V49.15A.73.73,0,0,1,43.32,49.88ZM15.09,48.42h27.5v-39H19.21l-4.12,4Z"/></svg>