
<svg id="Layer_1" data-name="Layer 1" xmlns="http://www.w3.org/2000/svg" viewBox="0 0 60 60"><defs><style>.cls-1{fill:#ffe178;}.cls-2{fill:#35bfbf;}</style></defs><path class="cls-1" d="M42,27.47a.72.72,0,0,1-.73-.73V20.36a.73.73,0,0,1,1.46,0v6.38A.73.73,0,0,1,42,27.47Z"/><path d="M34.31,44.29H18a.74.74,0,0,1-.67-1l4-8.61a.72.72,0,1,1,1.32.6l-3.49,7.59H33.31l-3-9.37A.73.73,0,0,1,31.72,33L35,43.34a.72.72,0,0,1-.1.65A.73.73,0,0,1,34.31,44.29Z"/><path d="M39.34,41.36a.73.73,0,0,1-.56-.26l-1.4-1.7H32.76a.73.73,0,0,1,0-1.46h5a.74.74,0,0,1,.57.27l1.61,2a.73.73,0,0,1-.1,1A.72.72,0,0,1,39.34,41.36Z"/><path d="M42,49H10.37a.73.73,0,0,1-.73-.73A5.4,5.4,0,0,1,15,42.83H37.3a5.4,5.4,0,0,1,5.39,5.39A.73.73,0,0,1,42,49Zm-30.8-1.46h30a3.93,3.93,0,0,0-3.86-3.2H15A4,4,0,0,0,11.16,47.49Z"/><path d="M44,49H7.87a.73.73,0,1,1,0-1.46H44A.73.73,0,0,1,44,49Z"/><path class="cls-2" d="M43.87,37.42a3,3,0,0,1-1.22-.26l-8.43-3.77L22.11,35.66a3,3,0,0,1-2.9-1.08L11.9,25.45,8.14,22.3A3,3,0,0,1,9.81,17a3,3,0,0,1,2.2.69L16,21a4.26,4.26,0,0,1,.42.43l6.36,8L34,27.3a3,3,0,0,1,1.78.21l9.28,4.15a3,3,0,0,1-1.23,5.76ZM34.31,31.9a.8.8,0,0,1,.3.06l8.63,3.87a1.58,1.58,0,0,0,2-.79,1.57,1.57,0,0,0-.78-2l-9.29-4.15a1.52,1.52,0,0,0-.92-.11L22.62,30.92a.74.74,0,0,1-.71-.26l-6.63-8.3-.22-.22-4-3.34a1.55,1.55,0,0,0-1.13-.35,1.56,1.56,0,0,0-1.41,1.68,1.53,1.53,0,0,0,.55,1.05l3.82,3.2.1.1,7.35,9.19a1.53,1.53,0,0,0,1.49.55l12.34-2.31Z"/><path class="cls-2" d="M12.43,25.66a.75.75,0,0,1-.55-.24.74.74,0,0,1,.06-1l3.42-3a.73.73,0,0,1,1,1.09l-3.42,3A.74.74,0,0,1,12.43,25.66Z"/><path class="cls-2" d="M22,32.5a.57.57,0,0,1-.22,0,.72.72,0,0,1-.47-.91L21.79,30a.73.73,0,0,1,1.39.43L22.69,32A.74.74,0,0,1,22,32.5Z"/><path class="cls-2" d="M34.31,33.36h-.07a.74.74,0,0,1-.66-.8l.2-1.95a.73.73,0,1,1,1.45.15l-.2,2A.72.72,0,0,1,34.31,33.36Z"/><path d="M38,22A26.92,26.92,0,0,1,31,21a25,25,0,0,1-7.21-3.16c-2.61-1.79-2.87-3.22-2.62-4.12s1.21-2,4.37-2.16a24.93,24.93,0,0,1,7.81,1,25.27,25.27,0,0,1,7.21,3.16c2.61,1.78,2.86,3.22,2.61,4.11C42.75,21.36,40.69,22,38,22ZM26.43,12.94l-.8,0c-2.05.12-2.92.67-3,1.11s.33,1.36,2,2.52a23.77,23.77,0,0,0,6.78,3c5.86,1.63,10.06,1,10.38-.13.12-.44-.34-1.36-2-2.52a23.65,23.65,0,0,0-6.78-3A25.21,25.21,0,0,0,26.43,12.94Z"/><path d="M42.48,20.35a.63.63,0,0,1-.19,0,.73.73,0,0,1-.51-.9c.12-.44-.34-1.36-2-2.52a23.65,23.65,0,0,0-6.78-3,23.68,23.68,0,0,0-7.33-1c-2.05.12-2.92.67-3,1.1a.73.73,0,0,1-1.41-.39l1.15-4.1C23.1,6.8,29,6.9,34.5,8.43s10.6,4.51,9.83,7.27l-1.15,4.11A.74.74,0,0,1,42.48,20.35ZM26.42,11.48a26.59,26.59,0,0,1,6.94,1.06,25.27,25.27,0,0,1,7.21,3.16,9.08,9.08,0,0,1,1.81,1.56l.55-2c.31-1.14-3-3.84-8.82-5.48s-10.06-1-10.38.13l-.54,1.95a8.89,8.89,0,0,1,2.36-.4Q26,11.48,26.42,11.48Z"/></svg>