
<svg id="Layer_1" data-name="Layer 1" xmlns="http://www.w3.org/2000/svg" viewBox="0 0 60 60"><defs><style>.cls-1{fill:#35bfbf;}.cls-2{fill:#ffe178;}</style></defs><path class="cls-1" d="M25.46,41.61c-1,0-1.69-.06-1.78-.06a.73.73,0,0,1,.13-1.46c.08,0,8,.68,12.35-3a.73.73,0,0,1,1,.1.72.72,0,0,1-.1,1C33.56,41.19,28.22,41.61,25.46,41.61Z"/><path class="cls-1" d="M25.45,45.52c-.59,0-1.07,0-1.41,0a.71.71,0,0,1-.68-.77.73.73,0,0,1,.77-.68c1.25.07,7.68.27,11.66-2.68a.73.73,0,0,1,.87,1.17C33.15,45.12,28.16,45.52,25.45,45.52Z"/><path class="cls-1" d="M25.41,49.43h-.85a.74.74,0,0,1-.71-.75.72.72,0,0,1,.76-.71c2,.07,7.13,0,10.71-2.37a.72.72,0,0,1,1,.21.73.73,0,0,1-.21,1C32.63,49.08,27.94,49.43,25.41,49.43Z"/><path d="M34.68,14.51l-.2,0a12.63,12.63,0,0,1-5-2.59.73.73,0,0,1,1-1.07,11.23,11.23,0,0,0,4.37,2.25.74.74,0,0,1,.51.89A.72.72,0,0,1,34.68,14.51Z"/><path d="M36.68,38H23.32a8.2,8.2,0,0,1-8.07-7L14,21.88a12.62,12.62,0,0,1,.59-6.19,10.52,10.52,0,0,1,9.67-7.2A9.61,9.61,0,0,1,30,10.44a9.61,9.61,0,0,1,5.78-1.95,10.52,10.52,0,0,1,9.67,7.2A12.62,12.62,0,0,1,46,21.88L44.75,31A8.2,8.2,0,0,1,36.68,38Zm-12.46-28a9.1,9.1,0,0,0-8.31,6.26,11.29,11.29,0,0,0-.51,5.48l1.29,9.06a6.74,6.74,0,0,0,6.63,5.76H36.68a6.74,6.74,0,0,0,6.63-5.76l1.29-9.06a11.29,11.29,0,0,0-.51-5.48,9.1,9.1,0,0,0-8.31-6.26,8.23,8.23,0,0,0-5.31,2,.75.75,0,0,1-.94,0A8.23,8.23,0,0,0,24.22,9.94Z"/><path class="cls-2" d="M22.08,18.64a.73.73,0,0,1-.73-.73V15.1a.73.73,0,1,1,1.46,0v2.81A.72.72,0,0,1,22.08,18.64Z"/><path class="cls-2" d="M23.49,17.24H20.68a.73.73,0,1,1,0-1.46h2.81a.73.73,0,0,1,0,1.46Z"/><path d="M35.17,51.51H24.83a.72.72,0,0,1-.72-.64L22.5,37.31a.72.72,0,0,1,.72-.81H36.78a.72.72,0,0,1,.72.81L35.89,50.87A.72.72,0,0,1,35.17,51.51Zm-9.69-1.45h9L36,38H24Z"/></svg>