
<svg id="Layer_1" data-name="Layer 1" xmlns="http://www.w3.org/2000/svg" viewBox="0 0 60 60"><defs><style>.cls-1{fill:#ffe178;}.cls-2{fill:#35bfbf;}</style></defs><path d="M34.82,21.21l-.19,0a13,13,0,0,1-5.13-2.67.73.73,0,1,1,1-1.06A11.66,11.66,0,0,0,35,19.78a.73.73,0,0,1-.19,1.43Z"/><path class="cls-1" d="M22.37,25.31a.73.73,0,0,1-.73-.73V24a.73.73,0,1,1,1.46,0v.61A.73.73,0,0,1,22.37,25.31Z"/><path class="cls-1" d="M24.23,23.46h-.62a.73.73,0,1,1,0-1.46h.62a.73.73,0,0,1,0,1.46Z"/><path class="cls-1" d="M21.13,23.46h-.62a.73.73,0,0,1,0-1.46h.62a.73.73,0,0,1,0,1.46Z"/><path class="cls-1" d="M48.69,36.73a.71.71,0,0,1-.56-.27.72.72,0,0,1,.09-1l2.89-2.38A.73.73,0,0,1,52,34.19l-2.88,2.37A.73.73,0,0,1,48.69,36.73Z"/><path class="cls-1" d="M51.57,40h-.1l-2.25-.3a.73.73,0,1,1,.19-1.44l2.26.3a.73.73,0,0,1-.1,1.45Z"/><path class="cls-1" d="M11.31,36.73a.73.73,0,0,1-.46-.17L8,34.19a.73.73,0,0,1,.92-1.13l2.89,2.38a.72.72,0,0,1,.09,1A.71.71,0,0,1,11.31,36.73Z"/><path class="cls-1" d="M8.43,40a.73.73,0,0,1-.1-1.45l2.26-.3a.73.73,0,1,1,.19,1.44L8.53,40Z"/><path d="M36,15a9.9,9.9,0,0,0-6,2,9.9,9.9,0,0,0-6-2c-5.95,0-10.8,5.43-10.8,12.1A75.41,75.41,0,0,0,14.39,38.9a.72.72,0,0,0,.48.56.65.65,0,0,0,.31,0l.15-.66.29-1.41a73.13,73.13,0,0,1-.92-10.27c0-5.87,4.19-10.64,9.34-10.64a8.52,8.52,0,0,1,5.49,2.05.75.75,0,0,0,.94,0A8.52,8.52,0,0,1,36,16.5c5.15,0,9.34,4.77,9.34,10.64a73.24,73.24,0,0,1-.92,10.27l.67,1.89,0,.18.11,0a.72.72,0,0,0,.48-.56,75.41,75.41,0,0,0,1.15-11.76C46.76,20.47,41.91,15,36,15Z"/><path class="cls-1" d="M22.37,22.22a.73.73,0,0,1-.73-.73v-.62a.73.73,0,0,1,1.46,0v.62A.73.73,0,0,1,22.37,22.22Z"/><path class="cls-2" d="M48.69,45H11.31a.73.73,0,0,1-.59-.31.74.74,0,0,1-.1-.66C12.91,37.46,20.88,32.9,30,32.9S47.09,37.46,49.38,44a.74.74,0,0,1-.1.66A.73.73,0,0,1,48.69,45ZM12.39,43.5H47.61C45.09,38.07,38,34.36,30,34.36S14.91,38.07,12.39,43.5Z"/></svg>