
<svg id="Layer_1" data-name="Layer 1" xmlns="http://www.w3.org/2000/svg" viewBox="0 0 60 60"><defs><style>.cls-1{fill:#ffe178;}.cls-2{fill:#35bfbf;}</style></defs><path d="M30.45,13l-.19,0a13.48,13.48,0,0,1-5.34-2.78.73.73,0,0,1,1-1.06,12.24,12.24,0,0,0,4.72,2.43.72.72,0,0,1,.51.89A.72.72,0,0,1,30.45,13Z"/><path class="cls-1" d="M16.91,17.45a.72.72,0,0,1-.73-.73v-3a.73.73,0,1,1,1.45,0v3A.72.72,0,0,1,16.91,17.45Z"/><path class="cls-1" d="M18.42,15.94h-3a.73.73,0,1,1,0-1.46h3a.73.73,0,1,1,0,1.46Z"/><path d="M32.85,49.34h-.53a4.18,4.18,0,0,1-4.17-4.17V37.94a2.73,2.73,0,0,0-5.46,0v7.23a4.17,4.17,0,0,1-8.22,1L8.55,22.29a14.08,14.08,0,0,1-.47-3.82,12.66,12.66,0,0,1,.77-4.12c1.76-4.68,5.82-7.71,10.36-7.71a10.3,10.3,0,0,1,6.21,2.11A10.23,10.23,0,0,1,38,8.87a.73.73,0,0,1-.08,1.21L26.16,16.93c.36,14.76,10.12,19.79,12.08,20.65a.73.73,0,0,1,.42.83L36.92,46.1A4.15,4.15,0,0,1,32.85,49.34ZM25.42,33.75a4.2,4.2,0,0,1,4.19,4.19v7.23a2.72,2.72,0,0,0,2.71,2.72h.53a2.72,2.72,0,0,0,2.65-2.11l1.61-7.12c-3-1.47-12.23-7.24-12.42-22.14a.75.75,0,0,1,.36-.64L36.21,9.4a8.71,8.71,0,0,0-4.58-1.3,8.91,8.91,0,0,0-5.74,2.14.75.75,0,0,1-.94,0A8.91,8.91,0,0,0,19.21,8.1c-3.92,0-7.45,2.65-9,6.76a11.43,11.43,0,0,0-.69,3.65A13.34,13.34,0,0,0,10,21.94l5.92,23.89a2.72,2.72,0,0,0,5.35-.66V37.94A4.2,4.2,0,0,1,25.42,33.75Z"/><path class="cls-1" d="M38.31,35a.73.73,0,0,1-.73-.73v-21a.73.73,0,0,1,1.46,0v21A.73.73,0,0,1,38.31,35Z"/><path d="M38.31,39.13a.74.74,0,0,1-.25-.05c-.13,0-13.15-5-13.37-22.56a.75.75,0,0,1,.36-.64L37.94,8.39a.75.75,0,0,1,.74,0l12.88,7.49a.74.74,0,0,1,.37.64C51.71,34.1,38.69,39,38.56,39.08A.74.74,0,0,1,38.31,39.13ZM26.16,16.93C26.53,32,36.54,36.87,38.31,37.62c1.77-.75,11.78-5.61,12.15-20.69L38.31,9.86Z"/><path class="cls-2" d="M38.31,35a.76.76,0,0,1-.33-.08c-2.65-1.37-8.89-5.68-9.53-16.28a.76.76,0,0,1,.36-.68l9.13-5.3a.75.75,0,0,1,.74,0L47.8,18a.75.75,0,0,1,.37.68c-.66,10.9-7.46,15.21-9.53,16.28A.76.76,0,0,1,38.31,35ZM29.94,19c.7,9.11,5.83,13,8.37,14.44C40.85,32.05,46,28.12,46.68,19l-8.37-4.87Z"/></svg>