
<svg id="Layer_1" data-name="Layer 1" xmlns="http://www.w3.org/2000/svg" viewBox="0 0 60 60"><defs><style>.cls-1{fill:#35bfbf;}.cls-2{fill:#ffe178;}</style></defs><path d="M33.26,29.52c-3.43,0-6.21-3.25-6.21-7.25V14a2.25,2.25,0,0,1,2.25-2.25h7.91A2.26,2.26,0,0,1,39.47,14v8.31C39.47,26.27,36.68,29.52,33.26,29.52Zm-4-16.35a.79.79,0,0,0-.79.79v8.31c0,3.2,2.13,5.8,4.75,5.8S38,25.47,38,22.27V14a.8.8,0,0,0-.8-.79Z"/><path d="M43.65,29.92c-3.11,0-5.64-3-5.64-6.58V15.89A2.1,2.1,0,0,1,40.1,13.8h7.1a2.1,2.1,0,0,1,2.09,2.09v7.45C49.29,27,46.76,29.92,43.65,29.92ZM40.1,15.25a.64.64,0,0,0-.63.64v7.45c0,2.82,1.87,5.12,4.18,5.12s4.19-2.3,4.19-5.12V15.89a.64.64,0,0,0-.64-.64Z"/><path d="M24,29.2a.72.72,0,0,1-.72-.73v-7a.8.8,0,0,0-.8-.8H16.82a.73.73,0,0,1-.73-.72V14a2.25,2.25,0,0,1,2.25-2.25h7.91A2.26,2.26,0,0,1,28.51,14v8.31a7.23,7.23,0,0,1-4.25,6.88A.86.86,0,0,1,24,29.2Zm-6.44-10h4.92a2.25,2.25,0,0,1,2.25,2.25v5.83a6.11,6.11,0,0,0,2.33-5V14a.8.8,0,0,0-.8-.79H18.34a.79.79,0,0,0-.79.79Z"/><path d="M11.9,29.92c-3.11,0-5.64-3-5.64-6.58V15.89A2.1,2.1,0,0,1,8.35,13.8h7.1a2.1,2.1,0,0,1,2.1,2.09v4a.73.73,0,0,1-.73.72H14.56a.8.8,0,0,0-.8.8V29a.72.72,0,0,1-.53.7A4.7,4.7,0,0,1,11.9,29.92ZM8.35,15.25a.64.64,0,0,0-.63.64v7.45c0,2.82,1.88,5.12,4.18,5.12l.41,0v-7a2.25,2.25,0,0,1,2.25-2.25h1.53V15.89a.64.64,0,0,0-.64-.64Z"/><path class="cls-1" d="M18.51,37c-3.42,0-6.2-3.26-6.2-7.26v-8.3a2.25,2.25,0,0,1,2.25-2.25h7.91a2.25,2.25,0,0,1,2.25,2.25v8.3C24.72,33.72,21.94,37,18.51,37Zm-4-16.36a.8.8,0,0,0-.8.8v8.3c0,3.2,2.13,5.8,4.75,5.8s4.76-2.6,4.76-5.8v-8.3a.8.8,0,0,0-.8-.8Z"/><path d="M34.65,52.3a.74.74,0,0,1-.63-.37L27.08,39.7a2.43,2.43,0,0,1,4.23-2.4l6.94,12.22a.78.78,0,0,1,.07.56.73.73,0,0,1-.35.44L35,52.2A.78.78,0,0,1,34.65,52.3ZM29.19,37.53a1,1,0,0,0-.48.12,1,1,0,0,0-.46.59,1,1,0,0,0,.1.74l6.58,11.59,1.69-1L30,38a1,1,0,0,0-.59-.46A1.09,1.09,0,0,0,29.19,37.53Z"/><path d="M28.35,37.75a.71.71,0,0,1-.63-.37l-2.31-4.06a.85.85,0,0,1-.09-.45l.26-2.07-5-.34a.73.73,0,0,1,.1-1.45l5.78.39a.74.74,0,0,1,.51.27.68.68,0,0,1,.16.55l-.32,2.59L29,36.66a.73.73,0,0,1-.28,1A.65.65,0,0,1,28.35,37.75Z"/><path class="cls-2" d="M40,37.19a.72.72,0,0,1-.73-.73v-.58a.73.73,0,1,1,1.45,0v.58A.72.72,0,0,1,40,37.19Z"/><path class="cls-2" d="M40,40.11a.73.73,0,0,1-.73-.73V38.8a.73.73,0,1,1,1.45,0v.58A.73.73,0,0,1,40,40.11Z"/><path class="cls-2" d="M41.73,38.36h-.58a.73.73,0,0,1,0-1.46h.58a.73.73,0,0,1,0,1.46Z"/><path class="cls-2" d="M38.82,38.36h-.58a.73.73,0,1,1,0-1.46h.58a.73.73,0,1,1,0,1.46Z"/><path class="cls-2" d="M20.16,44.77a.73.73,0,0,1-.73-.73v-.58a.73.73,0,0,1,1.46,0V44A.73.73,0,0,1,20.16,44.77Z"/><path class="cls-2" d="M20.16,47.69a.73.73,0,0,1-.73-.73v-.58a.73.73,0,1,1,1.46,0V47A.73.73,0,0,1,20.16,47.69Z"/><path class="cls-2" d="M21.91,45.94h-.58a.73.73,0,0,1,0-1.46h.58a.73.73,0,0,1,0,1.46Z"/><path class="cls-2" d="M19,45.94h-.58a.73.73,0,1,1,0-1.46H19a.73.73,0,1,1,0,1.46Z"/></svg>