
<svg id="Layer_1" data-name="Layer 1" xmlns="http://www.w3.org/2000/svg" viewBox="0 0 60 60"><defs><style>.cls-1{fill:#35bfbf;}.cls-2{fill:#ffe178;}</style></defs><path d="M35.48,37.08c-3.42,0-6.21-3.25-6.21-7.25V21.52a2.25,2.25,0,0,1,2.25-2.25h7.92a2.25,2.25,0,0,1,2.25,2.25v8.31C41.69,33.83,38.9,37.08,35.48,37.08Zm-4-16.35a.79.79,0,0,0-.79.79v8.31c0,3.2,2.13,5.8,4.75,5.8s4.75-2.6,4.75-5.8V21.52a.8.8,0,0,0-.79-.79Z"/><path d="M24.52,37.08c-3.42,0-6.21-3.25-6.21-7.25V21.52a2.25,2.25,0,0,1,2.25-2.25h7.92a2.25,2.25,0,0,1,2.25,2.25v8.31C30.73,33.83,27.94,37.08,24.52,37.08Zm-4-16.35a.8.8,0,0,0-.79.79v8.31c0,3.2,2.13,5.8,4.75,5.8s4.75-2.6,4.75-5.8V21.52a.79.79,0,0,0-.79-.79Z"/><path d="M45.87,37.48c-3.11,0-5.64-2.95-5.64-6.58V23.45a2.1,2.1,0,0,1,2.09-2.09h7.1a2.1,2.1,0,0,1,2.1,2.09V30.9C51.52,34.53,49,37.48,45.87,37.48ZM42.32,22.82a.63.63,0,0,0-.63.63V30.9c0,2.83,1.88,5.12,4.18,5.12s4.19-2.29,4.19-5.12V23.45a.64.64,0,0,0-.64-.63Z"/><path d="M14.13,37.48c-3.12,0-5.65-2.95-5.65-6.58V23.45a2.1,2.1,0,0,1,2.1-2.09h7.1a2.1,2.1,0,0,1,2.09,2.09V30.9C19.77,34.53,17.24,37.48,14.13,37.48ZM10.58,22.82a.64.64,0,0,0-.64.63V30.9c0,2.83,1.88,5.12,4.19,5.12s4.18-2.29,4.18-5.12V23.45a.63.63,0,0,0-.63-.63Z"/><path class="cls-1" d="M45.39,40.37a8.64,8.64,0,0,1-5.23-1.81A9,9,0,0,1,30,38.26a9,9,0,0,1-10.16.3,8.65,8.65,0,0,1-5.24,1.81c-5.07,0-9.19-4.53-9.19-10.11V23A5.71,5.71,0,0,1,5.51,22a.75.75,0,0,1,.88-.6.77.77,0,0,1,.6.88,3.66,3.66,0,0,0-.08.77v7.22c0,4.75,3.45,8.61,7.69,8.61a7.15,7.15,0,0,0,4.7-1.81l.45-.39.49.35a7.5,7.5,0,0,0,9.29-.29l.47-.39.48.39a7.49,7.49,0,0,0,9.28.29l.49-.35.45.39a7.15,7.15,0,0,0,4.69,1.81c4.25,0,7.7-3.86,7.7-8.61V23a3.66,3.66,0,0,0-.08-.77.77.77,0,0,1,.6-.88.75.75,0,0,1,.88.6,5.71,5.71,0,0,1,.1,1.05v7.22C54.59,35.84,50.47,40.37,45.39,40.37Z"/><path class="cls-2" d="M11.9,45.43a.73.73,0,0,1-.73-.73v-.59a.73.73,0,0,1,1.46,0v.59A.73.73,0,0,1,11.9,45.43Z"/><path class="cls-2" d="M11.9,48.34a.73.73,0,0,1-.73-.73V47a.73.73,0,1,1,1.46,0v.58A.72.72,0,0,1,11.9,48.34Z"/><path class="cls-2" d="M13.65,46.59h-.58a.73.73,0,1,1,0-1.45h.58a.73.73,0,1,1,0,1.45Z"/><path class="cls-2" d="M10.74,46.59h-.59a.73.73,0,0,1,0-1.45h.59a.73.73,0,1,1,0,1.45Z"/><path class="cls-2" d="M51.52,13.7a.73.73,0,0,1-.73-.73v-.58a.73.73,0,0,1,1.46,0V13A.73.73,0,0,1,51.52,13.7Z"/><path class="cls-2" d="M51.52,16.61a.72.72,0,0,1-.73-.72V15.3a.73.73,0,1,1,1.46,0v.59A.73.73,0,0,1,51.52,16.61Z"/><path class="cls-2" d="M53.27,14.86h-.59a.73.73,0,1,1,0-1.45h.59a.73.73,0,1,1,0,1.45Z"/><path class="cls-2" d="M50.35,14.86h-.58a.73.73,0,1,1,0-1.45h.58a.73.73,0,1,1,0,1.45Z"/></svg>