
<svg id="Layer_1" data-name="Layer 1" xmlns="http://www.w3.org/2000/svg" viewBox="0 0 60 60"><defs><style>.cls-1{fill:#35bfbf;}.cls-2{fill:#ffe178;}</style></defs><path d="M36.08,25l-.19,0a8.89,8.89,0,0,1-4.25-2.39.73.73,0,0,1,.07-1,.74.74,0,0,1,1,.07,7.58,7.58,0,0,0,3.53,1.94A.73.73,0,0,1,36.08,25Z"/><path class="cls-1" d="M19.89,33.19h-.1a.7.7,0,0,1-.57-.45,7.61,7.61,0,0,1-.57-2.9A7.81,7.81,0,0,1,26.44,22a7.89,7.89,0,0,1,1.13.09.77.77,0,0,1,.48.28l1.1,1.45a.76.76,0,0,1,.13.62l-.67,2.73a.71.71,0,0,1-.43.51l-2.57,1-1.49,1.7a.72.72,0,0,1-.31.21l-2.21.79-1.13,1.46A.72.72,0,0,1,19.89,33.19Zm6.55-9.69a6.34,6.34,0,0,0-6.33,6.33,6.2,6.2,0,0,0,.09,1.05l.38-.49a.73.73,0,0,1,.33-.24l2.23-.8,1.49-1.7a.7.7,0,0,1,.28-.19l2.38-.95.49-2-.71-.93A4.74,4.74,0,0,0,26.44,23.5Z"/><path d="M12.18,55.21a.73.73,0,0,1-.73-.73V49.15A5.41,5.41,0,0,1,15.16,44a5.34,5.34,0,0,1,6,1.79l.11.15a.73.73,0,0,1-1.2.83L20,46.66a3.84,3.84,0,0,0-4.4-1.3,3.92,3.92,0,0,0-2.73,3.79v5.33A.72.72,0,0,1,12.18,55.21Z"/><path class="cls-2" d="M19.23,40.53a.66.66,0,0,1-.27-.06A15.29,15.29,0,1,1,38.66,20a.74.74,0,0,1-.36,1,.73.73,0,0,1-1-.36A13.83,13.83,0,1,0,19.51,39.12a.73.73,0,0,1-.28,1.41Z"/><path d="M38.74,55.21a2.67,2.67,0,0,1-.73-.1,3.05,3.05,0,0,1-2.14-3V48.16a4,4,0,0,0-3.68-4.25,4,4,0,0,0-3.68,4.25v3.92a3,3,0,0,1-2.15,3,2.71,2.71,0,0,1-3.08-1.28c-3.86-6.25-5.09-14.93-5.48-19.54a.66.66,0,0,1,.15-.51l2.63-3.39a.73.73,0,0,1,.33-.24l2.23-.8,1.49-1.7a.7.7,0,0,1,.28-.19l2.38-.95.49-2L26.66,23a.74.74,0,0,1-.13-.58l.44-2.3a.71.71,0,0,1,.77-.59,8.71,8.71,0,0,1,4.45,1.69,8.66,8.66,0,0,1,5.16-1.73c5.21,0,9.44,4.75,9.44,10.58,0,.59,0,14.59-5.7,23.76A2.77,2.77,0,0,1,38.74,55.21ZM32.19,42.45a5.46,5.46,0,0,1,5.14,5.71v3.92a1.59,1.59,0,0,0,1.08,1.63,1.25,1.25,0,0,0,1.44-.64c5.45-8.82,5.49-22.86,5.49-23,0-5-3.59-9.12-8-9.12a7.33,7.33,0,0,0-4.7,1.75.71.71,0,0,1-.93,0,7.48,7.48,0,0,0-3.45-1.63L28,22.38l1.13,1.48a.76.76,0,0,1,.13.62l-.67,2.73a.71.71,0,0,1-.43.51l-2.57,1-1.49,1.7a.72.72,0,0,1-.31.21l-2.21.79-2.33,3C19.68,39,20.9,47.2,24.52,53.07a1.26,1.26,0,0,0,1.45.64,1.59,1.59,0,0,0,1.08-1.63V48.16A5.45,5.45,0,0,1,32.19,42.45Z"/><path d="M52.12,55.21a.72.72,0,0,1-.73-.73V49.15a3.92,3.92,0,0,0-2.73-3.79,3.84,3.84,0,0,0-4.4,1.3l-.06.09a.73.73,0,0,1-1.2-.83l.11-.15a5.33,5.33,0,0,1,6-1.79,5.39,5.39,0,0,1,3.71,5.17v5.33A.72.72,0,0,1,52.12,55.21Z"/><path d="M24.76,38.77A12.44,12.44,0,1,1,37.2,26.33,12.45,12.45,0,0,1,24.76,38.77Zm0-23.42a11,11,0,1,0,11,11A11,11,0,0,0,24.76,15.35Z"/></svg>